<svg width="319" height="6" viewBox="0 0 319 6" fill="none" xmlns="http://www.w3.org/2000/svg">
<path d="M319 6C316.496 6 315.188 4.8 314.13 3.83478C313.184 2.97391 312.489 2.34783 311.014 2.34783C309.511 2.34783 308.843 2.97391 307.897 3.83478C306.84 4.8 305.532 6 303.028 6C300.523 6 299.216 4.8 298.158 3.83478C297.212 2.97391 296.517 2.34783 295.042 2.34783C293.567 2.34783 292.871 2.97391 291.925 3.83478C290.868 4.8 289.56 6 287.056 6C284.551 6 283.243 4.8 282.186 3.83478C281.24 2.97391 280.544 2.34783 279.07 2.34783C277.567 2.34783 276.899 2.97391 275.953 3.83478C274.896 4.8 273.588 6 271.083 6C268.579 6 267.271 4.8 266.214 3.83478C265.268 2.97391 264.572 2.34783 263.097 2.34783C261.595 2.34783 260.927 2.97391 259.981 3.83478C258.812 4.8 257.504 6 255 6C252.496 6 251.188 4.8 250.13 3.83478C249.184 2.97391 248.489 2.34783 247.014 2.34783C245.511 2.34783 244.843 2.97391 243.897 3.83478C242.84 4.8 241.532 6 239.028 6C236.523 6 235.216 4.8 234.158 3.83478C233.212 2.97391 232.517 2.34783 231.042 2.34783C229.539 2.34783 228.871 2.97391 227.925 3.83478C226.812 4.8 225.504 6 223 6C220.496 6 219.188 4.8 218.13 3.83478C217.184 2.97391 216.489 2.34783 215.014 2.34783C213.511 2.34783 212.843 2.97391 211.897 3.83478C210.84 4.8 209.532 6 207.028 6C204.523 6 203.216 4.8 202.158 3.83478C201.212 2.97391 200.517 2.34783 199.042 2.34783C197.567 2.34783 196.871 2.97391 195.925 3.83478C194.84 4.8 193.504 6 191 6C188.496 6 187.188 4.8 186.13 3.83478C185.184 2.97391 184.489 2.34783 183.014 2.34783C181.511 2.34783 180.843 2.97391 179.897 3.83478C178.84 4.8 177.532 6 175.028 6C172.523 6 171.216 4.8 170.158 3.83478C169.212 2.97391 168.517 2.34783 167.042 2.34783C165.539 2.34783 164.871 2.97391 163.925 3.83478C162.868 4.8 161.56 6 159.056 6C156.551 6 155.243 4.8 154.186 3.83478C153.24 2.97391 152.544 2.34783 151.07 2.34783C149.595 2.34783 148.899 2.97391 147.953 3.83478C146.896 4.8 145.588 6 143.083 6C140.579 6 139.271 4.8 138.214 3.83478C137.268 2.97391 136.572 2.34783 135.097 2.34783C133.595 2.34783 132.927 2.97391 131.981 3.83478C130.923 4.8 129.616 6 127.111 6C124.607 6 123.299 4.8 122.242 3.83478C121.296 2.97391 120.6 2.34783 119.125 2.34783C117.623 2.34783 116.955 2.97391 116.009 3.83478C114.951 4.8 113.643 6 111.139 6C108.635 6 107.327 4.8 106.27 3.83478C105.323 2.97391 104.628 2.34783 103.153 2.34783C101.65 2.34783 100.983 2.97391 100.037 3.83478C98.9791 4.8 97.6713 6 95.167 6C92.6626 6 91.3548 4.8 90.2974 3.83478C89.3513 2.97391 88.6556 2.34783 87.1809 2.34783C85.7061 2.34783 85.0104 2.97391 84.0643 3.83478C83.007 4.8 81.6991 6 79.1948 6C76.6904 6 75.3826 4.8 74.3252 3.83478C73.3791 2.97391 72.6835 2.34783 71.2087 2.34783C69.7061 2.34783 69.0383 2.97391 68.0922 3.83478C67.0348 4.8 65.727 6 63.2226 6C60.7183 6 59.4104 4.8 58.353 3.83478C57.407 2.97391 56.7113 2.34783 55.2365 2.34783C53.7339 2.34783 53.0661 2.97391 52.12 3.83478C51.0626 4.8 49.7548 6 47.2504 6C44.7461 6 43.4383 4.8 42.3809 3.83478C41.4348 2.97391 40.7391 2.34783 39.2643 2.34783C37.7617 2.34783 37.0939 2.97391 36.1478 3.83478C34.84 4.8 33.5043 6 31 6C28.4957 6 27.1878 4.8 26.1304 3.83478C25.1843 2.97391 24.4887 2.34783 23.0139 2.34783C21.5113 2.34783 20.8435 2.97391 19.8974 3.83478C18.84 4.8 17.5322 6 15.0278 6C12.5235 6 11.2157 4.8 10.1583 3.83478C9.18435 2.97391 8.4887 2.34783 7.01391 2.34783C5.5113 2.34783 4.84348 2.97391 3.89739 3.83478C2.81217 4.8 1.50435 6 -1 6V3.65217C0.502609 3.65217 1.17043 3.02609 2.11652 2.16522C3.17391 1.2 4.48174 0 7.01391 0C9.51826 0 10.8261 1.2 11.8835 2.16522C12.8296 3.02609 13.5252 3.65217 15 3.65217C16.5026 3.65217 17.1704 3.02609 18.1165 2.16522C19.1739 1.2 20.5096 0 23.0139 0C25.5183 0 26.8261 1.2 27.8835 2.16522C28.8296 3.02609 29.5252 3.65217 31 3.65217C32.5026 3.65217 33.1704 3.02609 34.1165 2.16522C35.1739 1.2 36.4817 0 38.9861 0C41.4904 0 42.7983 1.2 43.8556 2.16522C44.8017 3.02609 45.4974 3.65217 46.9722 3.65217C48.4748 3.65217 49.1426 3.02609 50.0887 2.16522C51.1461 1.2 52.4539 0 54.9583 0C57.4626 0 58.7704 1.2 59.8278 2.16522C60.7739 3.02609 61.4696 3.65217 62.9443 3.65217C64.447 3.65217 65.1148 3.02609 66.0609 2.16522C67.1183 1.2 68.4261 0 70.9304 0C73.4348 0 74.7426 1.2 75.8 2.16522C76.7461 3.02609 77.4417 3.65217 78.9165 3.65217C80.4191 3.65217 81.087 3.02609 82.033 2.16522C83.0904 1.2 84.3983 0 86.9026 0C89.407 0 90.7148 1.2 91.7722 2.16522C92.7183 3.02609 93.4139 3.65217 94.8887 3.65217C96.3913 3.65217 97.0591 3.02609 98.0052 2.16522C99.0626 1.2 100.37 0 102.875 0C105.379 0 106.687 1.2 107.744 2.16522C108.69 3.02609 109.386 3.65217 110.861 3.65217C112.336 3.65217 113.031 3.02609 113.977 2.16522C115.035 1.2 116.343 0 118.847 0C121.351 0 122.659 1.2 123.717 2.16522C124.663 3.02609 125.358 3.65217 126.833 3.65217C128.336 3.65217 129.003 3.02609 129.95 2.16522C131.007 1.2 132.315 0 134.819 0C137.323 0 138.631 1.2 139.689 2.16522C140.635 3.02609 141.33 3.65217 142.805 3.65217C144.308 3.65217 144.976 3.02609 145.922 2.16522C146.979 1.2 148.287 0 150.791 0C153.296 0 154.603 1.2 155.661 2.16522C156.607 3.02609 157.303 3.65217 158.777 3.65217C160.28 3.65217 160.948 3.02609 161.894 2.16522C162.951 1.2 164.259 0 166.763 0C169.268 0 170.576 1.2 171.633 2.16522C172.579 3.02609 173.275 3.65217 174.75 3.65217C176.252 3.65217 176.92 3.02609 177.866 2.16522C178.923 1.2 180.231 0 182.736 0C185.24 0 186.548 1.2 187.605 2.16522C188.551 3.02609 189.247 3.65217 190.722 3.65217C192.224 3.65217 192.892 3.02609 193.838 2.16522C194.896 1.2 196.203 0 198.708 0C201.212 0 202.52 1.2 203.577 2.16522C204.523 3.02609 205.219 3.65217 206.694 3.65217C208.197 3.65217 208.864 3.02609 209.81 2.16522C210.868 1.2 212.176 0 214.68 0C217.184 0 218.492 1.2 219.55 2.16522C220.496 3.02609 221.191 3.65217 222.666 3.65217C224.169 3.65217 224.837 3.02609 225.783 2.16522C227.174 1.2 228.482 0 231.014 0C233.518 0 234.826 1.2 235.883 2.16522C236.83 3.02609 237.525 3.65217 239 3.65217C240.475 3.65217 241.17 3.02609 242.117 2.16522C243.174 1.2 244.482 0 246.986 0C249.49 0 250.798 1.2 251.856 2.16522C252.802 3.02609 253.497 3.65217 254.972 3.65217C256.447 3.65217 257.143 3.02609 258.089 2.16522C259.174 1.2 260.482 0 263.014 0C265.546 0 266.826 1.2 267.883 2.16522C268.83 3.02609 269.525 3.65217 271 3.65217C272.475 3.65217 273.17 3.02609 274.117 2.16522C275.174 1.2 276.482 0 278.986 0C281.49 0 282.798 1.2 283.856 2.16522C284.802 3.02609 285.497 3.65217 286.972 3.65217C288.475 3.65217 289.143 3.02609 290.089 2.16522C291.146 1.2 292.454 0 294.958 0C297.463 0 298.77 1.2 299.828 2.16522C300.774 3.02609 301.47 3.65217 302.944 3.65217C304.419 3.65217 305.115 3.02609 306.061 2.16522C307.118 1.2 308.426 0 310.93 0C313.435 0 314.743 1.2 315.8 2.16522C316.746 3.02609 317.442 3.65217 318.917 3.65217V6H319Z" fill="#F1F1F1"/>
</svg>
