<svg width="27" height="24" viewBox="0 0 27 24" fill="none" xmlns="http://www.w3.org/2000/svg">
<g filter="url(#filter0_d)">
<path d="M26.9571 4.24243C26.7628 3.83838 26.0826 3.93939 25.5968 3.83838H24.5279C24.6251 3.43434 24.8194 3.23232 25.0138 2.82828C25.1109 2.42424 25.3053 2.12121 25.2081 1.51515C25.3053 1.31313 25.4024 1.11111 25.4996 0.909089C25.5968 0.808079 25.694 0.404041 25.5968 0.202021C25.4996 7.67636e-07 25.3053 0 25.0138 0C24.9166 0 24.8194 0.101009 24.8194 0.101009C24.4308 0.505049 24.0421 1.11111 23.5562 1.51515H23.4591C23.3619 1.51515 23.4591 1.51515 23.3619 1.61616C23.2647 1.71717 23.0704 1.81818 22.9732 1.81818C22.6817 2.0202 22.4874 2.22222 22.0987 2.32323C21.6129 2.12121 20.9327 2.0202 20.2525 1.91919C19.0865 2.0202 18.0176 2.12121 17.3374 2.62626C16.4629 2.92929 15.8799 3.63636 15.2969 4.24243C15.2969 4.54546 15.0054 4.64646 14.9082 4.94949C14.9082 4.94949 14.9082 5.05051 14.811 5.05051C14.811 5.25253 14.7139 5.35354 14.7139 5.55556C14.7139 5.65657 14.9082 5.9596 14.7139 6.06061C13.9365 5.9596 13.2563 5.45455 12.6733 5.05051C11.9931 4.64646 11.2158 4.44444 10.6328 3.93939C9.95259 3.63636 9.36957 3.13131 8.88372 2.62626C8.68939 2.32323 8.39788 2.12121 8.20354 1.71717C7.81487 1.51515 8.00921 0.80808 7.52336 0.80808C7.23185 0.80808 7.23185 1.0101 7.13468 1.21212C7.03751 1.41414 6.74601 1.41414 6.74601 1.71717C6.74601 1.71717 6.74601 1.81818 6.64884 1.81818C6.4545 2.92929 6.16299 3.83838 6.16299 5.15151C6.26016 5.55555 6.4545 5.85858 6.74601 6.16161C6.35733 6.26263 6.06583 6.36364 5.87149 6.66667C5.77432 7.77778 6.26016 8.28283 6.55167 8.9899C6.64884 9.39394 6.94035 9.69697 7.13468 10C7.13468 10.202 7.32902 10.303 7.42619 10.404C7.42619 10.5051 7.52336 10.505 7.52336 10.6061C7.52336 10.7071 7.81487 10.8081 7.62053 10.8081C7.23185 10.9091 6.64884 10.9091 6.35733 11.2121C6.26016 11.5152 6.26016 12.0202 6.35733 12.3232C6.35733 12.5253 6.64884 12.6263 6.64884 12.8283C7.13468 13.2323 7.7177 13.5354 8.20354 13.9394C8.78656 14.1414 9.36957 14.2424 10.0498 14.3434C9.95258 14.6465 9.75825 14.9495 9.46674 15.0505C8.68939 15.4545 7.7177 15.5556 6.84318 15.7576C6.26016 15.7576 5.87149 15.9596 5.28848 15.9596C4.99697 16.0606 4.41395 16.0606 4.21962 16.1616C4.12245 16.2626 4.12245 16.2626 4.02528 16.3636C3.92811 16.7677 4.12245 17.0707 4.41395 17.2727C4.41395 17.5758 4.60829 17.5758 4.80263 17.6768C4.8998 17.8788 5.09414 17.9798 5.1913 18.0808C5.67715 18.5859 6.4545 18.8889 7.03752 19.1919C7.81487 19.3939 8.59222 19.596 9.46674 19.697C10.3413 19.798 11.3129 19.798 12.1875 19.899H13.1592C13.645 20 14.3252 20 15.0054 20C15.1025 19.899 15.2969 19.899 15.4912 19.899C15.9771 19.596 16.6572 19.4949 17.0459 19.1919C17.6289 18.9899 18.0176 18.5859 18.6006 18.2828C19.4751 17.4748 20.4468 16.9697 21.0298 15.8586C21.2242 15.6566 21.4185 15.4545 21.4185 15.1515C21.71 14.9495 21.8072 14.6465 22.0015 14.4444C22.3902 14.0404 22.6817 13.5354 22.9732 13.0303C23.2647 12.5253 23.5562 11.9192 23.8477 11.4141C23.8477 11.0101 24.1393 10.9091 24.1393 10.505C24.3336 10.303 24.3336 9.79798 24.5279 9.59596C24.5279 9.29293 24.5279 9.19192 24.6251 8.9899C24.6251 7.67677 24.6251 6.56566 24.3336 5.55556C24.9166 5.35354 25.4996 5.25252 25.8883 4.94949C26.6656 5.25252 27.1515 4.84849 26.9571 4.24243ZM23.6534 8.28283C23.4591 9.19192 23.0704 9.69697 22.6817 10.303C22.7789 10.7071 22.5845 10.8081 22.5845 11.2121C22.3902 11.5152 22.293 11.9192 22.1959 12.2222C22.0015 12.5253 21.9044 12.8283 21.71 13.1313C21.3214 13.6364 20.9327 14.2424 20.544 14.7475C20.1553 15.3535 19.6695 15.7576 19.2808 16.2626C18.8921 16.7677 18.4063 17.1717 17.9204 17.5758C17.4346 17.7778 17.0459 17.9798 16.6572 18.2828C16.4629 18.3838 16.1714 18.4848 15.9771 18.5859C15.7827 18.6869 15.4912 18.6869 15.2969 18.8889C14.228 18.9899 13.062 19.0909 11.7988 18.9899C10.8271 18.8889 9.75824 18.7879 8.88372 18.5859C8.0092 18.3838 7.42619 17.8788 6.64884 17.5758C6.84318 17.3737 7.23185 17.3737 7.62053 17.3737C7.62053 17.1717 8.00921 17.3737 8.00921 17.2727C8.30071 17.3737 8.30071 17.1717 8.49505 17.1717C9.07806 16.9697 9.66108 16.8687 10.1469 16.5657C10.4384 16.4646 10.5356 16.1616 10.8271 15.9596C10.8271 15.7576 10.9243 15.6566 11.0214 15.5556C11.0214 15.2525 11.2158 15.1515 11.1186 14.7475C11.2158 14.5455 11.4101 14.4444 11.4101 14.0404C11.313 13.9394 11.313 13.7374 11.1186 13.6364C11.1186 13.4343 10.7299 13.5354 10.7299 13.4343C10.4384 13.4343 10.3413 13.4343 10.1469 13.3333C9.95259 13.3333 9.66108 13.4343 9.66108 13.2323C8.88373 13.2323 8.39788 12.8283 7.81487 12.5253C8.20354 12.2222 8.78656 12.1212 9.07806 11.8182C9.56391 11.7172 10.1469 11.7172 10.1469 11.1111C10.1469 10.404 9.36957 10.404 8.88372 10.303C8.10637 9.59596 7.7177 8.58586 7.13468 7.77778C7.32902 7.57576 7.7177 7.57576 7.81487 7.37374C8.30071 7.47475 8.30071 7.07071 8.49505 6.86869C8.49505 6.36364 8.20354 6.26263 7.91203 6.06061C7.62053 5.85859 7.42619 5.55556 7.23185 5.35354C7.23185 4.54545 7.23185 3.63636 7.32902 2.92929C7.42619 2.92929 7.42619 2.92929 7.42619 3.0303C7.62053 3.43434 8.00921 3.83838 8.20354 4.24243C8.68939 4.64647 9.07806 5.15151 9.75825 5.35354C10.2441 5.75758 10.8271 5.9596 11.3129 6.36364C11.896 6.66667 12.479 6.9697 12.9648 7.27273C13.645 7.47475 14.0337 7.9798 14.9082 7.87879C15.1025 7.77778 15.2969 7.67677 15.4912 7.57576C15.7827 7.07071 15.394 6.46464 15.5884 5.95959C15.8799 5.25252 16.3657 4.94949 16.8516 4.44444C17.1431 4.24242 17.4346 4.14141 17.6289 3.93939C17.9204 3.83838 18.3091 3.73737 18.6006 3.53535C18.9893 3.53535 19.2808 3.43434 19.5723 3.43434H20.8355C21.0298 3.53535 21.3214 3.53535 21.5157 3.53535C21.71 3.63636 21.9044 3.83838 22.1959 3.93939C22.9732 4.64646 23.4591 5.65656 23.5562 6.9697C23.5562 7.27273 23.6534 7.67677 23.6534 8.28283ZM23.9449 2.62626C23.8477 2.92929 23.7506 3.33333 23.3619 3.43434C23.3619 3.33333 23.2647 3.33333 23.2647 3.23232C23.2647 3.0303 23.4591 3.0303 23.5562 2.92929C23.6534 2.82828 23.7506 2.62626 23.9449 2.62626C23.9449 2.52525 24.0421 2.62626 23.9449 2.62626ZM18.6006 5.65656C18.795 5.75757 18.8921 5.9596 19.0865 6.06061C19.1836 6.26263 19.378 6.36363 19.6695 6.46464C19.6695 6.26262 19.961 6.46465 20.0582 6.26263C20.2525 6.26263 20.2525 6.0606 20.3497 5.95959C20.3497 5.45454 20.2525 4.94949 19.961 4.64646C19.2808 4.14141 18.3091 4.64646 18.6006 5.65656Z" fill="#231F20"/>
</g>
<defs>
<filter id="filter0_d" x="0" y="0" width="31" height="28" filterUnits="userSpaceOnUse" color-interpolation-filters="sRGB">
<feFlood flood-opacity="0" result="BackgroundImageFix"/>
<feColorMatrix in="SourceAlpha" type="matrix" values="0 0 0 0 0 0 0 0 0 0 0 0 0 0 0 0 0 0 127 0"/>
<feOffset dy="4"/>
<feGaussianBlur stdDeviation="2"/>
<feColorMatrix type="matrix" values="0 0 0 0 0 0 0 0 0 0 0 0 0 0 0 0 0 0 0.25 0"/>
<feBlend mode="normal" in2="BackgroundImageFix" result="effect1_dropShadow"/>
<feBlend mode="normal" in="SourceGraphic" in2="effect1_dropShadow" result="shape"/>
</filter>
</defs>
</svg>
